<svg width="1920" height="1080" viewBox="0 0 1920 1080" xmlns="http://www.w3.org/2000/svg">
  <defs>
    <linearGradient id="bgGradient" x1="0%" y1="0%" x2="100%" y2="100%">
      <stop offset="0%" style="stop-color:#2563eb;stop-opacity:1" />
      <stop offset="50%" style="stop-color:#0891b2;stop-opacity:1" />
      <stop offset="100%" style="stop-color:#1e293b;stop-opacity:1" />
    </linearGradient>
    <pattern id="grid" width="100" height="100" patternUnits="userSpaceOnUse">
      <path d="M 100 0 L 0 0 0 100" fill="none" stroke="rgba(255,255,255,0.1)" stroke-width="1"/>
    </pattern>
  </defs>
  
  <!-- Background -->
  <rect width="1920" height="1080" fill="url(#bgGradient)"/>
  
  <!-- Grid pattern -->
  <rect width="1920" height="1080" fill="url(#grid)"/>
  
  <!-- Abstract shapes for educational theme -->
  <circle cx="1600" cy="200" r="100" fill="rgba(255,255,255,0.1)" opacity="0.6"/>
  <circle cx="200" cy="800" r="150" fill="rgba(255,255,255,0.08)" opacity="0.4"/>
  <circle cx="1400" cy="900" r="80" fill="rgba(255,255,255,0.12)" opacity="0.5"/>
  
  <!-- Book/Education themed elements -->
  <rect x="100" y="100" width="60" height="80" rx="5" fill="rgba(255,255,255,0.15)" opacity="0.7"/>
  <rect x="110" y="110" width="40" height="3" fill="rgba(255,255,255,0.3)"/>
  <rect x="110" y="120" width="35" height="3" fill="rgba(255,255,255,0.3)"/>
  <rect x="110" y="130" width="30" height="3" fill="rgba(255,255,255,0.3)"/>
  
  <!-- Graduation cap -->
  <polygon points="1700,100 1750,90 1800,100 1790,110 1710,110" fill="rgba(255,255,255,0.2)" opacity="0.6"/>
  <rect x="1745" y="110" width="10" height="30" fill="rgba(255,255,255,0.2)" opacity="0.6"/>
  
  <!-- Growth arrows -->
  <polygon points="300,600 320,580 340,600 330,600 330,650 310,650 310,600" fill="rgba(255,255,255,0.15)" opacity="0.8"/>
  <polygon points="1500,400 1520,380 1540,400 1530,400 1530,450 1510,450 1510,400" fill="rgba(255,255,255,0.15)" opacity="0.8"/>
  
  <!-- Decorative dots -->
  <circle cx="800" cy="150" r="3" fill="rgba(255,255,255,0.4)"/>
  <circle cx="820" cy="170" r="2" fill="rgba(255,255,255,0.3)"/>
  <circle cx="840" cy="190" r="4" fill="rgba(255,255,255,0.5)"/>
  
  <circle cx="1200" cy="700" r="3" fill="rgba(255,255,255,0.4)"/>
  <circle cx="1220" cy="720" r="2" fill="rgba(255,255,255,0.3)"/>
  <circle cx="1240" cy="740" r="4" fill="rgba(255,255,255,0.5)"/>
  
  <!-- Subtle geometric pattern -->
  <polygon points="500,300 520,280 540,300 520,320" fill="rgba(255,255,255,0.1)" opacity="0.6"/>
  <polygon points="1100,500 1120,480 1140,500 1120,520" fill="rgba(255,255,255,0.1)" opacity="0.6"/>
  
  <!-- Light rays effect -->
  <path d="M 0 0 L 400 400 L 380 420 L 0 20 Z" fill="rgba(255,255,255,0.05)" opacity="0.8"/>
  <path d="M 1920 0 L 1520 400 L 1540 420 L 1920 20 Z" fill="rgba(255,255,255,0.05)" opacity="0.8"/>
</svg>
